<?xml version="1.0" encoding="utf-8"?><svg xmlns="http://www.w3.org/2000/svg" xmlns:xlink="http://www.w3.org/1999/xlink"><symbol viewBox="0 0 31.39 31.39" id="find"><path d="M20.194 3.46c-4.613-4.613-12.121-4.613-16.734 0-4.612 4.614-4.612 12.121 0 16.735 4.108 4.107 10.506 4.547 15.116 1.34.097.459.319.897.676 1.254l6.718 6.718a2.498 2.498 0 003.535 0 2.496 2.496 0 000-3.535l-6.718-6.72a2.5 2.5 0 00-1.253-.674c3.209-4.611 2.769-11.008-1.34-15.118zm-2.121 14.614c-3.444 3.444-9.049 3.444-12.492 0-3.442-3.444-3.442-9.048 0-12.492 3.443-3.443 9.048-3.443 12.492 0 3.444 3.444 3.444 9.048 0 12.492z"/></symbol><symbol viewBox="0 -28 512.001 512" id="heart"><path d="M256 455.516a30.022 30.022 0 01-19.793-7.438c-20.684-18.086-40.625-35.082-58.219-50.074l-.09-.078c-51.582-43.957-96.125-81.918-127.117-119.313C16.137 236.81 0 197.172 0 153.871c0-42.07 14.426-80.883 40.617-109.293C67.121 15.832 103.488 0 143.031 0c29.555 0 56.621 9.344 80.446 27.77C235.5 37.07 246.398 48.453 256 61.73c9.605-13.277 20.5-24.66 32.527-33.96C312.352 9.344 339.418 0 368.973 0c39.539 0 75.91 15.832 102.414 44.578C497.578 72.988 512 111.801 512 153.871c0 43.3-16.133 82.938-50.777 124.738-30.993 37.399-75.532 75.356-127.106 119.309-17.625 15.016-37.597 32.039-58.328 50.168a30.046 30.046 0 01-19.789 7.43zM143.031 29.992c-31.066 0-59.605 12.399-80.367 34.914-21.07 22.856-32.676 54.45-32.676 88.965 0 36.418 13.535 68.988 43.883 105.606 29.332 35.394 72.961 72.574 123.477 115.625l.093.078c17.66 15.05 37.68 32.113 58.516 50.332 20.961-18.254 41.012-35.344 58.707-50.418 50.512-43.051 94.137-80.223 123.469-115.617 30.344-36.618 43.879-69.188 43.879-105.606 0-34.516-11.606-66.11-32.676-88.965-20.758-22.515-49.3-34.914-80.363-34.914-22.758 0-43.653 7.235-62.102 21.5-16.441 12.719-27.894 28.797-34.61 40.047-3.452 5.785-9.53 9.238-16.261 9.238s-12.809-3.453-16.262-9.238c-6.71-11.25-18.164-27.328-34.61-40.047-18.448-14.265-39.343-21.5-62.097-21.5zm0 0"/></symbol><symbol viewBox="0 0 512 512" id="new"><path d="M10.667 138.667h490.667c5.891 0 10.667 4.776 10.667 10.667v213.333c0 5.891-4.776 10.667-10.667 10.667H10.667C4.776 373.333 0 368.558 0 362.667V149.333c0-5.891 4.776-10.666 10.667-10.666z" fill="#35d073"/><g fill="#fafafa"><path d="M181.333 309.333a10.666 10.666 0 01-8.533-4.267L128 245.333v53.333c0 5.891-4.776 10.667-10.667 10.667s-10.667-4.776-10.667-10.667v-85.333c0-5.891 4.776-10.667 10.667-10.667 3.357 0 6.519 1.581 8.533 4.267l44.8 59.733v-53.333c0-5.891 4.776-10.667 10.667-10.667S192 207.442 192 213.333v85.333a10.665 10.665 0 01-7.296 10.133c-1.09.351-2.226.53-3.371.534zm85.334 0H224c-5.891 0-10.667-4.776-10.667-10.667v-85.333c0-5.891 4.776-10.667 10.667-10.667h42.667c5.891 0 10.667 4.776 10.667 10.667S272.558 224 266.667 224h-32v64h32c5.891 0 10.667 4.776 10.667 10.667-.001 5.891-4.776 10.666-10.667 10.666z"/><path d="M266.667 266.667H224c-5.891 0-10.667-4.776-10.667-10.667s4.776-10.667 10.667-10.667h42.667c5.891 0 10.667 4.776 10.667 10.667-.001 5.891-4.776 10.667-10.667 10.667zm106.666 42.666a10.666 10.666 0 01-10.112-7.296L352 268.395l-11.221 33.643c-1.872 5.586-7.918 8.596-13.503 6.724a10.665 10.665 0 01-6.955-7.514l-21.333-85.333c-1.558-5.681 1.785-11.55 7.466-13.108s11.55 1.785 13.108 7.466c.044.159.083.318.12.479l12.459 49.792 9.749-29.248c2.519-5.585 9.089-8.07 14.674-5.55a11.095 11.095 0 015.55 5.55l9.749 29.248 12.459-49.792c1.293-5.747 7.001-9.358 12.748-8.065 5.747 1.293 9.358 7.001 8.065 12.748a9.897 9.897 0 01-.12.48l-21.333 85.333a10.666 10.666 0 01-9.941 8.085h-.408z"/></g></symbol><symbol viewBox="0 0 512 512" id="pin"><path d="M256 0C156.748 0 76 80.748 76 180c0 33.534 9.289 66.26 26.869 94.652l142.885 230.257A15 15 0 00258.499 512h.119a14.997 14.997 0 0012.75-7.292L410.611 272.22C427.221 244.428 436 212.539 436 180 436 80.748 355.252 0 256 0zm128.866 256.818L258.272 468.186l-129.905-209.34C113.734 235.214 105.8 207.95 105.8 180c0-82.71 67.49-150.2 150.2-150.2S406.1 97.29 406.1 180c0 27.121-7.411 53.688-21.234 76.818z"/><path d="M256 90c-49.626 0-90 40.374-90 90 0 49.309 39.717 90 90 90 50.903 0 90-41.233 90-90 0-49.626-40.374-90-90-90zm0 150.2c-33.257 0-60.2-27.033-60.2-60.2 0-33.084 27.116-60.2 60.2-60.2s60.1 27.116 60.1 60.2c0 32.683-26.316 60.2-60.1 60.2z"/></symbol><symbol viewBox="0 0 64 64" id="sale"><g data-name="sign 路 ecommerce 路 shopping 路 tag 路 sale"><path d="M53.841 5.685l-15.4 2.3a8 8 0 00-4.477 2.256L4.009 40.192a4 4 0 000 5.657l14.142 14.142a4 4 0 005.657 0l29.968-29.968a8 8 0 002.25-4.44l1.2-7.786 1.161-7.547a4 4 0 00-4.546-4.565zM52.8 15.444a3.022 3.022 0 11.835-1.664 3 3 0 01-.835 1.664z" fill="#ed1c24"/><path d="M56.256 6.085L55.224 12.8l-1.2 7.786a8 8 0 01-2.25 4.44L21.808 54.991a4 4 0 01-5.657 0L3.026 41.867a3.982 3.982 0 00.983 3.982l14.142 14.142a4 4 0 005.657 0l29.968-29.968a8 8 0 002.25-4.44l1.2-7.786 1.161-7.547a4 4 0 00-2.131-4.165z" fill="#cf1820"/><path d="M23.1 43.728a3 3 0 00-4.243 0l-1.414 1.414a1 1 0 01-1.415 0l-1.414-1.414a1 1 0 010-1.415l2.828-2.828a1 1 0 00-1.414-1.414L13.2 40.9a3 3 0 000 4.243l1.414 1.414a3 3 0 004.243 0l1.414-1.414a1 1 0 011.415 0l1.414 1.413a1 1 0 010 1.415L20.272 50.8a1 1 0 101.414 1.414l2.829-2.828a3 3 0 000-4.243zm11.415-6.1l-10.607-6.364a1 1 0 00-1.221.15l-1.415 1.415a1 1 0 00-.15 1.221l6.364 10.607a1 1 0 101.715-1.03l-1.72-2.866 3.138-3.138 2.866 1.72a1 1 0 001.03-1.715zm-8.095 1.366l-3.182-5.3.31-.31 5.3 3.182zm14.237-8.58l-3.536 3.536-7.778-7.778a1 1 0 10-1.414 1.414l8.485 8.485a1 1 0 001.414 0l4.243-4.243a1 1 0 00-1.414-1.414zm6.657-6.657l-2.829 2.829-2.828-2.829 1.414-1.414a1 1 0 00-1.414-1.414l-1.414 1.414-2.829-2.828 2.829-2.829a1 1 0 10-1.414-1.414l-3.536 3.536a1 1 0 000 1.414l8.485 8.485a1 1 0 001.414 0l3.536-3.536a1 1 0 10-1.414-1.414z" fill="#f1f2f2"/><path d="M53.776 30.023L42.454 41.345c.047.368.081.657.094.74C43.835 50.278 47.311 56 51 56c4.878 0 9-9.617 9-21 0-5.965-1.1-11.514-3.036-15.516l-.938 6.1a8 8 0 01-2.25 4.439z" fill="none"/><path d="M57.457 16.28l.928-6.03a4 4 0 00-2.129-4.165L55.224 12.8l-.126.818a11.909 11.909 0 012.359 2.662z" fill="#cf1820"/><path d="M58.09 17.3c-.2-.359-.417-.692-.633-1.017a11.909 11.909 0 00-2.357-2.668A6.484 6.484 0 0051 12a1 1 0 000 2 5.206 5.206 0 013.729 2.01 12.751 12.751 0 011.624 2.277c.215.376.413.787.611 1.2C58.9 23.486 60 29.035 60 35c0 11.383-4.122 21-9 21-3.689 0-7.165-5.722-8.452-13.915-.013-.083-.047-.372-.094-.74L40.7 43.1C42.277 52.172 46.278 58 51 58c6.168 0 11-10.1 11-23 0-6.915-1.426-13.369-3.91-17.7z" fill="#ffcd00"/></g></symbol><symbol viewBox="0 -10 511.987 511" id="star"><path d="M510.652 185.902a27.158 27.158 0 00-23.425-18.71l-147.774-13.419-58.433-136.77C276.71 6.98 266.898.494 255.996.494s-20.715 6.487-25.023 16.534l-58.434 136.746-147.797 13.418a27.208 27.208 0 00-23.402 18.71c-3.371 10.368-.258 21.739 7.957 28.907l111.7 97.96-32.938 145.09c-2.41 10.668 1.73 21.696 10.582 28.094 4.757 3.438 10.324 5.188 15.937 5.188 4.84 0 9.64-1.305 13.95-3.883l127.468-76.184 127.422 76.184c9.324 5.61 21.078 5.097 29.91-1.305a27.223 27.223 0 0010.582-28.094l-32.937-145.09 111.699-97.94a27.224 27.224 0 007.98-28.927zm0 0" fill="#ffc107"/></symbol><symbol viewBox="0 0 24 24" id="starv2"><path d="M12 0l4 9 8 1-6 5 2 9-8-5-8 5 2-9-6-5 8-1z" fill="#f39c12"/><path d="M12 0L8 9l-6.969.8L6 14l-.188.8L6 15l-1.75 7.8L12 18l7.75 4.8L18 15l.188-.2L18 14l4.969-4.2L16 9l-4-9z" fill="#f1c40f"/></symbol><symbol viewBox="0 0 480 480" id="telephone"><path d="M352 0H128c-22.08.026-39.974 17.92-40 40v400c.026 22.08 17.92 39.974 40 40h224c22.08-.026 39.974-17.92 40-40V40c-.026-22.08-17.92-39.974-40-40zm24 440c0 13.255-10.745 24-24 24H128c-13.255 0-24-10.745-24-24v-8h272v8zm0-24H104V64h272v352zm0-368H104v-8c0-13.255 10.745-24 24-24h224c13.255 0 24 10.745 24 24v8z"/><path d="M224 24h-16a8 8 0 000 16h16a8 8 0 000-16zm56 0h-32a8 8 0 000 16h32a8 8 0 000-16zm-16 416h-48a8 8 0 000 16h48a8 8 0 000-16z"/></symbol><symbol viewBox="0 0 512 512" id="user"><path d="M437.02 330.98c-27.883-27.882-61.071-48.523-97.281-61.018C378.521 243.251 404 198.548 404 148 404 66.393 337.607 0 256 0S108 66.393 108 148c0 50.548 25.479 95.251 64.262 121.962-36.21 12.495-69.398 33.136-97.281 61.018C26.629 379.333 0 443.62 0 512h40c0-119.103 96.897-216 216-216s216 96.897 216 216h40c0-68.38-26.629-132.667-74.98-181.02zM256 256c-59.551 0-108-48.448-108-108S196.449 40 256 40s108 48.448 108 108-48.449 108-108 108z"/></symbol></svg>